<svg width="276" height="91" viewBox="0 0 276 91" fill="none" xmlns="http://www.w3.org/2000/svg">
<g clip-path="url(#clip0_1129_861)">
<path d="M254.029 55.5188L263.459 37.7588H276L260.842 55.5188H254.029Z" fill="white"/>
<path d="M186.963 63.7613H184.365L187.544 49.437H190.141L186.963 63.7613Z" fill="white"/>
<path d="M193.141 55.3296H191.687L193.339 52.3833H192.196L192.85 49.437H195.724L195.084 52.3203L193.141 55.3296Z" fill="white"/>
<path d="M196.94 63.96C196.112 63.96 195.462 63.6934 195.06 63.1943C194.648 62.6807 194.517 61.9538 194.697 61.1542C195.21 58.8379 197.294 57.5828 201.437 57.0934L201.616 56.2841C201.684 55.974 201.641 55.722 201.49 55.5282C201.297 55.3053 200.938 55.1696 200.487 55.1696C199.349 55.1696 198.607 55.7802 198.026 56.3908L197.972 56.4489L196.553 55.1647L196.601 55.1066C197.454 54.0454 199.295 53.207 200.778 53.207H200.875C202.324 53.241 203.23 53.5462 203.72 54.1665C204.233 54.8255 204.316 55.848 203.967 57.4181L202.901 62.23C202.813 62.6128 202.712 63.1846 202.77 63.6741L202.779 63.7613H200.245L200.284 62.9423C199.353 63.4802 198.302 63.96 196.945 63.96H196.94ZM201.035 58.8912C199.368 59.2013 197.653 59.5357 197.352 60.8925C197.275 61.2366 197.313 61.5225 197.468 61.7115C197.614 61.8956 197.866 61.9974 198.186 61.9974C198.869 61.9974 199.901 61.4353 200.594 60.9458L201.035 58.8912Z" fill="white"/>
<path d="M208.604 63.96H208.536C207.325 63.96 206.361 63.5578 205.75 62.8018C204.984 61.8472 204.791 60.3789 205.193 58.5617C205.925 55.2665 208.11 53.207 210.872 53.207C212.84 53.207 214.182 54.278 214.371 55.9934L214.38 56.0564L212.04 56.8947L212.021 56.8075C211.832 55.9885 211.58 55.3295 210.436 55.3295C209.128 55.3295 208.28 56.3568 207.785 58.5956C207.475 59.9912 207.514 60.9071 207.906 61.3965C208.144 61.6921 208.522 61.8375 209.05 61.8375C210.136 61.8375 210.887 61.0282 211.492 60.2384L211.536 60.1802L213.285 61.3093L213.232 61.3771C211.856 63.1895 210.465 63.96 208.599 63.96H208.604Z" fill="white"/>
<path d="M218.412 63.96H218.344C217.128 63.96 216.168 63.5578 215.558 62.8018C214.792 61.8472 214.603 60.3789 215.005 58.5617C215.742 55.2665 217.922 53.207 220.684 53.207C222.647 53.207 223.994 54.278 224.183 55.9934L224.193 56.0564L221.852 56.8947L221.833 56.8075C221.644 55.9885 221.392 55.3295 220.248 55.3295C218.935 55.3295 218.092 56.3568 217.598 58.5956C217.288 59.9912 217.326 60.9071 217.719 61.3965C217.956 61.6921 218.329 61.8375 218.858 61.8375C219.938 61.8375 220.699 61.0282 221.305 60.2384L221.348 60.1802L223.098 61.3093L223.049 61.3771C221.673 63.1895 220.282 63.96 218.412 63.96Z" fill="white"/>
<path d="M228.036 63.96C226.887 63.96 225.967 63.5723 225.376 62.8309C224.6 61.8714 224.411 60.3934 224.818 58.5617C225.55 55.2665 227.735 53.207 230.498 53.207C231.627 53.207 232.509 53.5899 233.09 54.3119C233.798 55.1938 234.021 56.5216 233.696 57.985L233.458 59.0463H227.304C227.096 60.1172 227.183 60.8925 227.566 61.3626C227.823 61.6776 228.205 61.8375 228.705 61.8375C229.8 61.8375 230.425 61.3432 231.186 60.6406L231.234 60.5969L232.882 61.7842L232.824 61.852C231.573 63.2912 230.042 63.96 228.031 63.96H228.036ZM227.706 57.2436H231.457C231.583 56.5361 231.491 55.9789 231.195 55.6154C230.948 55.3247 230.561 55.1696 230.052 55.1696C228.942 55.1696 228.065 55.9352 227.706 57.2436Z" fill="white"/>
<path d="M242.811 63.7613H240.213L241.706 57.0256C241.866 56.2938 241.846 55.8189 241.643 55.567C241.502 55.407 241.275 55.3295 240.926 55.3295C239.714 55.3295 238.73 56.1291 238.474 56.3762L236.85 63.7613H234.253L236.555 53.4009H238.944L238.721 54.4185C239.772 53.7934 240.887 53.207 242.031 53.207C242.946 53.207 243.625 53.4687 244.042 53.9921C244.531 54.5978 244.642 55.504 244.376 56.7106L242.811 63.7613Z" fill="white"/>
<path d="M248.117 63.9601C247.254 63.9601 246.634 63.7469 246.295 63.3205C245.965 62.9134 245.888 62.298 246.067 61.5081L247.39 55.5138H245.98L246.45 53.4059H247.865L248.602 50.0283H251.199L250.453 53.4059H252.454L251.984 55.5138H249.983L248.713 61.2271C248.665 61.4403 248.679 61.5905 248.752 61.6777C248.839 61.7843 249.033 61.8376 249.367 61.8376C249.643 61.8376 249.949 61.7698 250.244 61.702C250.336 61.6826 250.428 61.6583 250.516 61.639L250.632 61.6196L250.147 63.7954L249.895 63.8244C249.295 63.8923 248.732 63.9601 248.127 63.9601H248.117Z" fill="white"/>
<path d="M163.533 81.9383C162.418 81.9383 161.58 81.604 161.047 80.9352C160.329 80.0388 160.189 78.585 160.62 76.6128C161.279 73.6277 163.44 71.4519 165.747 71.4519C166.988 71.4519 167.724 71.8202 168.5 72.8378L169.624 67.7739H170.927L167.831 81.7445H166.881L166.963 80.5766C166.052 81.478 164.904 81.9335 163.533 81.9335V81.9383ZM165.849 72.5277C163.969 72.5277 162.476 74.1511 161.875 76.855C161.546 78.3282 161.667 79.5106 162.21 80.189C162.568 80.6348 163.106 80.8626 163.804 80.8626C165.161 80.8626 166.111 80.1454 167.128 79.0647L168.199 74.2141C167.957 73.5696 166.9 72.5277 165.854 72.5277H165.849Z" fill="white"/>
<path d="M173.511 72.5277H172.585L174.334 69.6541H173.569L173.985 67.7739H175.788L175.381 69.596L173.511 72.5277Z" fill="white"/>
<path d="M185.044 81.7494H183.541L183.149 77.2282H178.051L175.633 81.7494H174.116L181.685 67.7788H183.726L185.039 81.7494H185.044ZM178.696 76.0361H183.081L182.417 69.092L178.7 76.0361H178.696Z" fill="white"/>
<path d="M199.872 81.7491H198.558L200.259 74.1024C200.371 73.5839 200.322 73.1914 200.114 72.9297C199.901 72.6632 199.518 72.5323 198.98 72.5323C198.122 72.5323 196.479 73.4579 195.67 74.3834L194.042 81.7491H192.734L194.434 74.1024C194.551 73.5839 194.502 73.1913 194.294 72.9345C194.081 72.668 193.703 72.5323 193.16 72.5323C192.302 72.5323 190.679 73.4579 189.865 74.3834L188.241 81.7491H186.933L189.177 71.6455H190.485L190.18 73.0266C191.309 72.072 192.201 71.4565 193.732 71.4565C194.861 71.4565 195.694 72.1592 195.806 73.1865C196.809 72.2755 197.943 71.4565 199.435 71.4565C200.293 71.4565 200.894 71.6843 201.257 72.135C201.64 72.6099 201.727 73.3222 201.519 74.2526L199.867 81.754L199.872 81.7491Z" fill="white"/>
<path d="M207.882 70.4292L209.137 68.0596H210.799L208.788 70.4292H207.882Z" fill="white"/>
<path d="M206.288 81.9381C205.052 81.9381 204.136 81.5747 203.56 80.8575C202.837 79.961 202.687 78.5557 203.104 76.6755C203.812 73.5112 205.9 71.4565 208.43 71.4565C209.515 71.4565 210.324 71.7957 210.857 72.4596C211.584 73.3658 211.744 74.8389 211.318 76.7482L211.303 76.8112H204.383C204.073 78.2504 204.214 79.4231 204.766 80.1161C205.168 80.6152 205.774 80.8672 206.583 80.8672C207.838 80.8672 208.546 80.4407 209.883 78.8852L209.927 78.8319L210.877 79.4134L210.819 79.4861C209.302 81.3227 208.153 81.943 206.288 81.943V81.9381ZM208.158 72.5275C206.293 72.5275 204.994 74.3592 204.626 75.7257H210.232C210.349 74.5288 210.184 73.6614 209.714 73.1332C209.37 72.7407 208.851 72.5372 208.187 72.5275" fill="white"/>
<path d="M213.658 81.7491H212.35L214.593 71.6455H215.906L215.533 73.3319C216.367 72.1786 217.598 71.4565 218.761 71.4565H219.376L219.095 72.7262H218.514C217.229 72.7262 215.325 74.2671 214.923 76.0601L213.658 81.754V81.7491Z" fill="white"/>
<path d="M220.079 81.7493H218.785L221.014 71.6458H222.323L220.079 81.7493ZM222.778 69.6153H221.465L221.877 67.7739H223.185L222.778 69.6153Z" fill="white"/>
<path d="M229.722 85.2575H228.428L229.451 80.591C228.424 81.4487 227.513 81.9333 226.146 81.9333C225.196 81.9333 224.411 81.5747 223.864 80.9011C223.108 79.961 222.89 78.454 223.268 76.7628C224.024 73.3901 225.88 71.5244 228.501 71.5244C229.703 71.5244 230.638 71.9799 231.331 72.9152L231.777 71.7182H232.736L229.722 85.2527V85.2575ZM228.351 72.605C226.563 72.605 225.167 74.0976 224.615 76.5883C224.256 78.1923 224.372 79.4231 224.954 80.1452C225.332 80.6201 225.904 80.8575 226.65 80.8575C227.711 80.8575 229.233 79.8157 229.78 79.1227L230.847 74.2962C230.328 73.3028 229.698 72.6002 228.351 72.6002V72.605Z" fill="white"/>
<path d="M236.056 81.9381C235.115 81.9381 234.442 81.6909 234.044 81.2015C233.584 80.6249 233.497 79.7381 233.773 78.4927L235.29 71.6455H236.603L235.096 78.4103C234.878 79.4037 234.917 80.0434 235.217 80.4213C235.455 80.7169 235.871 80.8623 236.482 80.8623C237.572 80.8623 238.348 80.2663 239.627 79.2826L240 79.0015L241.633 71.6455H242.946L240.703 81.7491H239.389L239.709 80.3099C238.44 81.3711 237.451 81.9381 236.051 81.9381H236.056Z" fill="white"/>
<path d="M247.114 81.9381C245.883 81.9381 244.967 81.5747 244.39 80.8575C243.673 79.961 243.518 78.5557 243.935 76.6755C244.637 73.5112 246.726 71.4565 249.246 71.4565C250.331 71.4565 251.155 71.7957 251.688 72.4596C252.415 73.3658 252.575 74.8341 252.149 76.7434L252.134 76.8064H245.214C244.904 78.2407 245.04 79.4134 245.597 80.1112C245.999 80.6103 246.61 80.8623 247.414 80.8623C248.655 80.8623 249.362 80.4359 250.695 78.8804L250.738 78.8271L251.703 79.4086L251.645 79.4813C250.113 81.3178 248.97 81.9381 247.114 81.9381ZM248.974 72.5275C247.123 72.5275 245.825 74.3592 245.461 75.7257H251.063C251.184 74.5288 251.005 73.6614 250.535 73.1332C250.186 72.7407 249.672 72.5372 249.004 72.5275H248.979H248.974Z" fill="white"/>
<path d="M63.0977 41.4124C63.0977 41.6547 64.2267 41.7613 64.2267 42.3283V51.3658H72.0431L72.7312 48.749C72.7312 48.749 72.5131 48.7054 72.3338 48.8944C71.9607 49.2966 71.6312 50.4693 69.8673 50.4693H66.1263V46.4521H70.3083V45.5265H66.1263V42.149H70.1774C70.9818 42.149 71.3307 42.7256 71.8008 42.871C71.9122 42.9001 72.0382 42.8758 72.0382 42.8758L71.418 41.2573H63.1025V41.4075L63.0977 41.4124Z" fill="white"/>
<path d="M56.0277 51.3658C57.0841 51.3658 58.1114 51.2107 58.9788 50.8182C60.8154 49.9895 62.0463 48.3129 62.0463 46.2437C62.0463 43.2393 59.7881 41.2573 55.5577 41.2573H51.6616V41.4124C51.6616 41.6547 52.781 41.7564 52.781 42.3331V51.3609H56.0277V51.3658ZM58.2665 50.0719C57.7044 50.3481 56.9678 50.4693 56.4299 50.4693H54.6854V42.1587H54.9229C59.4925 42.1587 60.4084 44.7318 60.4084 46.549C60.4084 48.2256 59.4828 49.471 58.2617 50.0719H58.2665Z" fill="white"/>
<path d="M0 39.1155C0 39.3578 0.993398 39.2948 1.30838 40.0701L6.05731 51.3658H7.47229L12.2018 38.9556H9.47847V39.1155C9.47847 39.3578 10.467 39.2512 10.4767 39.7842C10.4767 40.012 10.2587 40.6274 10.0939 41.0974L7.07494 49.1851H7.03617L2.89297 38.9556H0V39.1155Z" fill="white"/>
<path d="M36.8379 41.4124C36.8379 41.6547 37.9621 41.7613 37.9621 42.3283V51.3658H45.7833L46.4714 48.749C46.4714 48.749 46.2485 48.7054 46.0741 48.8944C45.7009 49.2966 45.3666 50.4693 43.6075 50.4693H39.8665V46.4521H44.0485V45.5265H39.8665V42.149H43.9177C44.7221 42.149 45.071 42.7256 45.5362 42.871C45.6476 42.9001 45.7785 42.8758 45.7785 42.8758L45.1582 41.2573H36.8427V41.4075L36.8379 41.4124Z" fill="white"/>
<path d="M27.5 41.2622V41.4124C27.5 41.6547 28.6291 41.7613 28.6291 42.3283V51.3658H35.9512L36.6393 48.749C36.6393 48.749 36.4212 48.7054 36.2419 48.8944C35.8688 49.2966 35.5393 50.4693 33.7754 50.4693H30.5287V41.2622H27.5Z" fill="white"/>
<path d="M18.0556 41.2622V41.4124C18.0556 41.6547 19.1799 41.7613 19.1799 42.3283V51.3658H26.5019L27.19 48.749C27.19 48.749 26.9671 48.7054 26.7927 48.8944C26.4147 49.2966 26.09 50.4693 24.3262 50.4693H21.0794V41.2622H18.0508H18.0556Z" fill="white"/>
<path d="M15.9232 51.3658V41.2622H12.8945V41.4124C12.8945 41.6547 14.0188 41.7613 14.0188 42.3283V51.3658H15.9183H15.9232Z" fill="white"/>
<path d="M63.6843 60.1709C64.8279 59.914 69.0002 57.6219 71.6944 56.1973H66.994L62.812 59.9576C62.812 59.9576 63.1609 60.292 63.6843 60.1709Z" fill="white"/>
<path d="M46.5248 62.1382V62.4483C46.5248 62.9232 48.8654 63.1364 48.8654 64.2607V75.3383C48.8654 78.6771 46.2826 80.7511 43.0213 80.7511C39.76 80.7511 37.1821 78.5559 37.1821 75.2171V62.143H31.3477V62.4483C31.3477 62.962 33.2424 63.1316 33.2424 64.5175V74.7568C33.2424 79.6414 36.5715 82.4665 42.7354 82.4665C45.0614 82.4665 47.3196 81.5458 48.8654 80.1453V82.1176H54.7095V81.8172C54.7095 81.3035 52.8148 81.1339 52.8148 79.748V62.1479H46.5297L46.5248 62.1382Z" fill="white"/>
<path d="M139.275 67.3378C139.086 65.7581 138.935 64.1832 138.901 62.6083C137.157 61.9105 135.078 61.6294 133.154 61.6294C126.898 61.6294 119.843 64.9343 119.843 72.2176C119.843 79.5009 126.612 82.6168 131.526 82.6168C134.739 82.6168 137.879 81.8269 139.885 80.189L140.031 78.4251C137.913 79.5833 135.383 80.47 132.776 80.47C127.446 80.47 123.327 76.0312 123.327 71.1709C123.327 67.0277 126.598 63.5774 132.132 63.5774C133.983 63.5774 136.105 64.0039 137.482 65.2396C138.194 65.8356 138.591 67.3281 138.974 67.3281H139.275V67.3378Z" fill="white"/>
<path d="M56.5122 62.4386C56.5122 62.9135 58.8527 63.1316 58.8527 64.251V82.1128H75.0912L76.5255 76.9422C76.5255 76.9422 76.0652 76.855 75.7018 77.2233C74.9216 78.018 74.2383 80.3392 70.5797 80.3392H62.807V72.4017H71.5004V70.57H62.807V63.8972H71.2193C72.896 63.8972 73.6132 65.0457 74.5872 65.3219C74.815 65.3801 75.0863 65.3316 75.0863 65.3316L73.7973 62.1382H56.5219V62.4386H56.5122Z" fill="white"/>
<path d="M98.4189 62.4386C98.4189 62.9135 100.759 63.1316 100.759 64.251V82.1128H116.998L118.427 76.9422C118.427 76.9422 117.972 76.855 117.604 77.2233C116.828 78.018 116.14 80.3392 112.482 80.3392H104.709V72.4017H113.402V70.57H104.709V63.8972H113.121C114.793 63.8972 115.515 65.0457 116.489 65.3219C116.717 65.3801 116.988 65.3316 116.988 65.3316L115.694 62.1382H98.4189V62.4386Z" fill="white"/>
<path d="M77.2432 62.1382V62.4386C77.2432 62.9135 79.5837 63.1316 79.5837 64.251V82.1128H87.182C88.9992 82.1128 90.5692 81.9722 91.9018 81.6282C95.6865 80.6493 97.5473 78.4251 97.5473 76.1911C97.5473 72.8475 94.2909 71.5827 90.6565 71.2435V71.1805C93.3798 70.4876 95.4296 69.2907 95.4296 66.7999C95.4296 63.1946 91.8049 62.1382 86.8428 62.1382H77.2432ZM86.7701 63.8924C87.623 63.8924 88.4371 63.936 89.1543 64.1104C90.797 64.503 91.9503 65.4431 91.9503 67.1779C91.9503 68.7528 90.7582 69.9206 88.4661 70.4149C87.5939 70.599 86.5617 70.6426 85.3696 70.6426H83.5282V63.8924H86.7653H86.7701ZM87.1142 72.4017C88.1221 72.4017 89.0283 72.4211 89.8278 72.5713C92.3913 73.0607 93.845 74.4079 93.845 76.5643C93.845 78.4251 92.3137 79.6462 89.6001 80.1357C88.5388 80.3295 87.2838 80.3343 85.8978 80.3343H83.5331V72.3968H87.1142V72.4017Z" fill="white"/>
<path d="M46.3653 87.2349C46.3653 87.4626 46.186 87.5789 45.9486 87.6904C43.8358 88.7807 39.8719 90.5203 34.8177 90.5203C29.5115 90.5203 25.7947 89.0084 19.9603 85.3934L15.7202 82.7234C15.1823 82.7621 14.6347 82.7767 14.0871 82.7621C6.0721 82.5344 -0.0433533 76.5449 0.421848 69.3828C0.891895 62.2206 7.76815 56.5994 15.7832 56.8223C23.7982 57.0501 29.9137 63.0395 29.4485 70.2066C29.1093 75.4061 25.3925 79.7868 20.3189 81.7154L24.2101 83.9251C31.6242 87.9957 36.2908 88.4124 38.6798 88.4124C40.5067 88.4124 43.1041 88.1071 45.527 87.0895C45.7354 87.0168 45.9195 86.9005 46.0503 86.9005C46.2248 86.9005 46.3653 87.0556 46.3653 87.2397V87.2349ZM14.4312 59.5505C8.74217 59.5505 4.35667 64.1299 4.63773 69.785C4.91395 75.4401 9.7501 80.0194 15.4391 80.0194C21.1281 80.0194 25.5136 75.4401 25.2326 69.785C24.9564 64.1299 20.1202 59.5457 14.4312 59.5457V59.5505Z" fill="white"/>
<path d="M97.1642 24.8545C94.5959 21.1959 93.8351 16.2919 99.6016 14.6443L108.964 12.8174C106.774 14.8866 106.085 18.2205 108.93 22.8822C103.381 20.1734 96.6651 20.561 97.1593 24.8545H97.1642Z" fill="white"/>
<path d="M125.735 19.8243C122.459 14.8573 123.884 10.8934 125.658 9.08594L113.238 11.7463C107.733 14.0917 109.109 19.2961 111.101 22.2618C110.718 18.4239 116.523 16.4565 125.73 19.8243H125.735Z" fill="white"/>
<path d="M115.147 39.7115C104.297 30.5916 108.363 24.5488 112.108 22.6977L125.885 20.1343C119.678 26.5114 122.018 33.911 125.09 37.6569C119.682 34.6476 112.157 34.3762 115.147 39.7163V39.7115Z" fill="white"/>
<path d="M103.406 36.3582C101.511 36.4745 100.605 37.6666 100.818 39.101C96.4469 35.8736 93.6848 30.393 97.2319 25.5375L109.046 23.3423C106.25 25.9542 104.486 32.1133 113.238 39.5613C110.384 38.723 107.282 36.1159 103.406 36.3631V36.3582Z" fill="white"/>
<path d="M136.459 18.6953C129.631 20.1345 117.929 25.7315 126.671 37.0611C125.173 32.5787 129.845 32.1425 136.537 33.1747C132.447 30.4998 129.612 24.9804 136.459 18.6953Z" fill="white"/>
<path d="M121.892 41.1946L122.27 40.0898L124.48 39.9347L125.318 38.2193L131.986 36.2373L132.602 34.7496L138.392 32.8452C139.395 35.1131 138.702 37.4342 137.559 39.2999C136.871 40.4193 135.965 41.3254 135.315 42.1153C133.585 44.2233 134.084 47.7559 135.955 51.3612H103.88C101.181 48.8607 100.236 46.4378 99.0005 43.9567C97.7648 41.4708 96.3062 40.3805 92.4683 37.7928C91.5669 37.1822 92.037 36.31 93.0255 36.9109L95.841 38.5972C103.434 41.3497 113.247 41.4466 121.902 41.1898L121.892 41.1946Z" fill="white"/>
<path d="M85.5051 29.3076L86.828 29.3464C84.8073 27.9557 83.1016 26.7151 82.6654 26.4147C82.0113 25.9834 81.895 26.5552 82.2632 26.8266L85.5051 29.3125V29.3076Z" fill="white"/>
<path d="M91.5818 32.6367C91.5818 32.6367 91.0536 33.5962 91.4848 34.2116L95.2452 37.3808L99.0977 38.4081L91.5769 32.6367H91.5818Z" fill="white"/>
<path d="M102.688 5.47554C102.722 4.90858 102.95 4.83589 102.993 5.38347C103.042 5.9359 103.623 11.9544 103.633 12.4584C103.648 12.9672 103.589 13.0787 103.425 13.1223C103.265 13.1707 102.993 13.2047 102.809 13.2192C102.635 13.2337 102.543 13.1707 102.528 12.8703C102.514 12.5747 102.62 6.51256 102.678 5.46585L102.688 5.47554Z" fill="white"/>
<path d="M119.057 0.450768C119.048 0.193938 119.111 0.00495013 119.237 0.000104282C119.368 -0.00474156 119.431 0.160017 119.44 0.344159C119.474 0.77544 120.022 9.16845 120.036 9.42043C120.051 9.67241 120.007 9.75964 119.794 9.81779C119.566 9.88563 119.469 9.90501 119.256 9.93893C119.053 9.96316 118.902 9.89048 118.902 9.65303C118.902 9.41558 119.067 0.882048 119.053 0.450768H119.057Z" fill="white"/>
<path d="M129.883 10.3796C129.898 9.99679 130.15 9.91442 130.179 10.3021C130.208 10.6898 130.658 19.1797 130.658 19.6449C130.658 20.1101 130.625 20.1682 130.469 20.2603C130.319 20.3524 130.203 20.4008 129.99 20.4929C129.772 20.585 129.665 20.5704 129.665 20.3039C129.665 20.0374 129.767 12.8558 129.878 10.3796H129.883Z" fill="white"/>
<path d="M125.037 13.4615C124.882 13.2047 125.013 13.1901 125.125 13.2047C125.425 13.2483 126.205 13.3597 126.772 13.0593C127.339 12.7637 127.887 12.4002 128.468 12.2791C129.229 12.1192 129.568 12.2452 129.229 12.6522C128.677 13.321 128.618 14.2853 129.108 15.0848C129.263 15.3368 129.278 15.4774 128.992 15.4483C127.383 15.2641 126.709 14.8813 125.42 15.6179C125.139 15.7778 125.066 15.6663 125.163 15.5161C125.449 15.08 125.784 14.7747 126.22 14.4985C126.438 14.358 126.37 14.2901 126.21 14.2417C125.595 14.0478 125.173 13.6989 125.033 13.4663L125.037 13.4615Z" fill="white"/>
<path d="M118.374 2.6604C117.332 3.14983 116.673 3.05291 116.131 2.78154C115.883 2.6604 115.636 2.52956 115.438 2.45687C114.556 2.12251 114.119 2.30665 113.543 2.73793C112.85 3.26128 112.147 3.46965 111.343 3.66833C110.858 3.78948 110.335 3.98816 109.971 4.25468C109.453 4.63266 109.177 5.12693 109.056 5.50975C108.954 5.81504 109.017 5.88289 109.24 5.80051C110.097 5.48068 110.349 5.30138 111.498 5.5679C112.855 5.87804 113.475 5.98465 114.793 5.50975C116.092 5.03971 116.707 4.93795 117.492 5.36923C117.817 5.54852 118.2 5.87319 118.326 5.70843C118.457 5.54852 118.108 5.29169 118.04 5.06394C117.764 4.11415 118.151 3.31943 118.495 2.87361C118.573 2.76701 118.534 2.58286 118.374 2.6604Z" fill="white"/>
<path d="M101.962 8.70333C101.676 8.20421 101.782 7.40949 102 6.79891C102.136 6.43063 101.588 6.2901 100.784 6.54693C99.9651 6.81345 99.4611 7.25927 98.3611 7.35134C97.4647 7.42887 96.6796 7.27381 96.3646 7.20112C96.1224 7.14297 96.1611 7.26896 96.3937 7.53064C96.5294 7.68086 96.9025 7.96676 97.2902 8.16544C97.4356 8.24298 97.4065 8.36897 97.2272 8.56765C97.0818 8.72756 96.8008 8.95047 96.3598 9.17338C96.2726 9.21699 96.1369 9.31875 96.5343 9.50774C97.0867 9.76942 98.1721 10.0262 99.5048 9.5562C100.144 9.32845 100.561 9.03285 101.249 9.05708C102.063 9.08615 102.214 9.12977 101.966 8.70333H101.962Z" fill="white"/>
<path d="M139.565 28.0284C139.565 28.6244 139.08 29.109 138.484 29.109C137.888 29.109 137.404 28.6244 137.404 28.0284C137.404 27.4323 137.888 26.9478 138.484 26.9478C139.08 26.9478 139.565 27.4323 139.565 28.0284Z" fill="white"/>
<path d="M139.919 28.8423C139.638 29.3414 139.1 29.6806 138.484 29.6806C137.869 29.6806 137.331 29.3414 137.05 28.8423C136.648 29.259 136.575 29.4722 136.575 29.4722L137.118 29.8938L137.622 32.4379H139.352L139.856 29.8938L140.394 29.4722C140.394 29.4722 140.326 29.259 139.919 28.8423Z" fill="white"/>
<path d="M135.616 43.375C134.773 45.1147 135.18 47.8574 136.779 50.9345L137.002 51.3658H138.93C138.93 51.3658 139.066 50.1834 137.351 47.8235C135.766 45.638 135.621 43.8402 135.616 43.375Z" fill="white"/>
<path d="M93.4376 40.0024C93.5878 40.1138 93.5587 40.2108 93.3939 40.1041C93.2292 39.9975 92.3279 39.4596 91.8239 39.2028C85.0979 45.2601 76.8163 34.7979 83.1789 30.0151L91.8966 29.7534C89.1054 34.7592 90.9419 38.1125 93.4327 40.0024H93.4376ZM91.6398 39.0914C88.582 37.3808 85.5824 37.1433 85.0106 38.6746C84.2256 40.7777 89.2168 41.6306 91.6398 39.0914Z" fill="white"/>
</g>
<defs>
<clipPath id="clip0_1129_861">
<rect width="276" height="90.5204" fill="white"/>
</clipPath>
</defs>
</svg>
